{"title":"Women.Without.Men.2009.DVDRiP.XviD.AC3(5.1).SWESUB-Zen_Bud ","uid":5951743,"size":1462833480,"categoryP":"video","categoryS":"movies","magnet":"?xt=urn:btih:893f96915989f7481b2d7c0ec5e68e0f6c2d7cf4&amp;dn=Women.Without.Men.2009.DVDRiP.XviD.AC3%285.1%29.SWESUB-Zen_Bud+&amp;tr=udp%3A%2F%2Ftracker.openbittorrent.com%3A80&amp;tr=udp%3A%2F%2Fopen.demonii.com%3A1337&amp;tr=udp%3A%2F%2Ftracker.coppersurfer.tk%3A6969&amp;tr=udp%3A%2F%2Fexodus.desync.com%3A6969","seeders":0,"leechers":1,"uploader":"Zen_Bud","files":-1,"time":1289552964,"description":"Ã‚Â¤Ã‚Â¤Ã‚Â¤Ã‚Â¤Ã‚Â¤Ã‚Â¤Ã‚Â¤Ã‚Â¤ Women.Without.Men.2009.DVDRiP.XviD.AC3(5.1).SWESUB-Zen_Bud Ã‚Â¤Ã‚Â¤Ã‚Â¤Ã‚Â¤Ã‚Â¤Ã‚Â¤Ã‚Â¤Ã‚Â¤Ã‚Â¤Ã‚Â¤\n\nFormat                           : AVI\nFormat profile                   : OpenDML\nFile size                        : 1.36 GiB\nDuration                         : 1h 35mn\nOverall bit rate                 : 2 037 Kbps\nWriting application              : AVI-Mux GUI 1.17.8.3\n\nVideo\n\nFormat                           : MPEG-4 Visual\nCodec ID/Hint                    : XviD\nDuration                         : 1h 35mn\nBit rate                         : 1 583 Kbps\nWidth                            : 688 pixels\nHeight                           : 288 pixels\nDisplay aspect ratio             : 2.35:1\nStream size                      : 1.06 GiB (78%)\nWriting library                  : XviD 1.2.0.dev47 (UTC 2006-11-01)\n\nAudio\n\nFormat                           : AC-3\nDuration                         : 1h 35mn\nBit rate                         : 448 Kbps\nChannel(s)                       : 6 channels\nChannel positions                : Front: L C R, Side: L R, LFE\nSampling rate                    : 48.0 KHz\nBit depth                        : 16 bits\nStream size                      : 307 MiB (22%)\nLanguage                            : Persian\n\n\n\nAgainst the tumultuous backdrop of Iran's 1953 CIA-backed coup d'ÃƒÂ©tat, the destinies of four women converge in a beautiful orchard garden, where they find independence, solace and companionship. ","torrent":{"xt":"urn:btih:893f96915989f7481b2d7c0ec5e68e0f6c2d7cf4","amp;dn":"Women.Without.Men.2009.DVDRiP.XviD.AC3%285.1%29.SWESUB-Zen_Bud+","amp;tr":["udp%3A%2F%2Ftracker.openbittorrent.com%3A80","udp%3A%2F%2Fopen.demonii.com%3A1337","udp%3A%2F%2Ftracker.coppersurfer.tk%3A6969","udp%3A%2F%2Fexodus.desync.com%3A6969"],"infoHash":"893f96915989f7481b2d7c0ec5e68e0f6c2d7cf4","infoHashBuffer":{"type":"Buffer","data":[137,63,150,145,89,137,247,72,27,45,124,14,197,230,142,15,108,45,124,244]},"announce":[],"urlList":[]}}